<svg xmlns="http://www.w3.org/2000/svg" xmlns:xlink="http://www.w3.org/1999/xlink" width="32" height="32" preserveAspectRatio="xMidYMid meet" viewBox="0 0 32 32" style="-ms-transform: rotate(360deg); -webkit-transform: rotate(360deg); transform: rotate(360deg);"><path d="M27.45 15.11l-22-11a1 1 0 0 0-1.08.12a1 1 0 0 0-.33 1L7 16L4 26.74A1 1 0 0 0 5 28a1 1 0 0 0 .45-.11l22-11a1 1 0 0 0 0-1.78zm-20.9 10L8.76 17H18v-2H8.76L6.55 6.89L24.76 16z" fill="currentColor"/><rect x="0" y="0" width="32" height="32" fill="rgba(0, 0, 0, 0)" /></svg>